<?xml version="1.0" encoding="utf-8"?>
<!-- Svg Vector Icons : http://www.onlinewebfonts.com/icon -->
<!DOCTYPE svg PUBLIC "-//W3C//DTD SVG 1.1//EN" "http://www.w3.org/Graphics/SVG/1.1/DTD/svg11.dtd">
<svg version="1.1" xmlns="http://www.w3.org/2000/svg" xmlns:xlink="http://www.w3.org/1999/xlink" x="0px" y="0px" viewBox="0 0 1000 1000" enable-background="new 0 0 1000 1000" xml:space="preserve">
<metadata> Svg Vector Icons : http://www.onlinewebfonts.com/icon </metadata>
<g><g transform="translate(0.000000,511.000000) scale(0.100000,-0.100000)"><path d="M7587.1,4996.6c-663-70.2-1201.2-499.2-1402-1119.3c-136.5-415.4-107.2-885.3,83.9-1337.7l60.4-146.3L4519.8,585.8L2712.1-1223.8l-144.3,60.5c-265.2,111.1-489.4,157.9-772.2,159.9c-557.7,5.9-1008.1-198.9-1327.9-598.6c-286.6-360.7-413.4-842.4-352.9-1343.5l17.6-130.7l473.8,462.1L1080-2152l409.5,79.9l409.5,80l510.9-497.3l509-499.2l-87.7-429l-89.7-429L2283.1-4299c-251.5-249.6-450.4-456.3-442.7-460.2c35.1-21.5,226.2-37.1,423.2-35.1c717.6,3.9,1326,436.8,1548.3,1105.6c144.3,429,122.9,865.8-66.3,1333.8l-66.3,165.8L5487-379.5l1807.6,1807.6l144.3-60.4c323.7-136.5,696.1-193,1006.2-154.1c702,87.8,1232.4,549.9,1407.9,1226.5c39,156,48.8,230.1,46.8,440.7c0,140.4-7.8,288.6-17.5,331.5l-15.6,78l-473.9-468l-471.9-468l-409.5-80l-409.5-80l-507,499.2l-507,499.2l85.8,427.1l87.7,427l454.3,454.4c249.6,249.6,450.4,458.2,444.6,464.1c-7.8,9.7-399.7,52.6-425.1,48.7C7729.4,5012.2,7661.2,5004.4,7587.1,4996.6z"/></g></g>
</svg>