<?xml version="1.0" encoding="iso-8859-1"?>
<!-- Generator: Adobe Illustrator 18.0.0, SVG Export Plug-In . SVG Version: 6.00 Build 0)  -->
<!DOCTYPE svg PUBLIC "-//W3C//DTD SVG 1.1//EN" "http://www.w3.org/Graphics/SVG/1.1/DTD/svg11.dtd">
<svg version="1.1" id="Capa_1" xmlns="http://www.w3.org/2000/svg" xmlns:xlink="http://www.w3.org/1999/xlink" x="0px" y="0px"
	 viewBox="0 0 379.313 379.313" style="enable-background:new 0 0 379.313 379.313;" xml:space="preserve">
<g>
	<path d="M335.176,337.677c-0.588-17.168-2.6-34.416-5.596-51.317c-3.631-20.476-8.25-50.492-26.127-63.835
		c-10.336-7.715-23.723-10.246-35.559-14.897c-5.098-2.004-9.727-3.994-14.082-6.199c-15.774,21.615-37.839,33.003-64.158,33.005
		c-26.313,0-48.375-11.388-64.15-33.006c-4.356,2.205-8.985,4.196-14.085,6.2c-11.837,4.651-25.224,7.182-35.56,14.897
		c-17.877,13.343-22.496,43.359-26.127,63.835c-2.994,16.901-5.008,34.15-5.596,51.317c-0.455,13.299,6.111,15.163,17.236,19.177
		c13.93,5.025,28.314,8.754,42.793,11.811c27.965,5.904,56.791,10.444,85.49,10.647c28.701-0.204,57.525-4.743,85.492-10.647
		c14.478-3.057,28.861-6.786,42.791-11.811C329.066,352.84,335.631,350.976,335.176,337.677z"/>
	<path d="M295.92,77.695h-20.861V45.55c0-25.158-20.391-45.55-45.552-45.55h-79.702c-25.157,0-45.549,20.392-45.549,45.55v32.145
		H83.393c-5.094,0-9.221,4.128-9.221,9.221v13.368c0,5.093,4.127,9.221,9.221,9.221h33.006c-0.125,5.461,0.13,11.119,0.799,16.953
		c4.699,40.989,22.626,90.892,72.459,90.891c49.836-0.004,67.767-49.902,72.461-90.891c0.668-5.834,0.923-11.492,0.799-16.953
		h33.004c5.094,0,9.221-4.128,9.221-9.221V86.916C305.141,81.823,301.014,77.695,295.92,77.695z"/>
</g>
<g>
</g>
<g>
</g>
<g>
</g>
<g>
</g>
<g>
</g>
<g>
</g>
<g>
</g>
<g>
</g>
<g>
</g>
<g>
</g>
<g>
</g>
<g>
</g>
<g>
</g>
<g>
</g>
<g>
</g>
</svg>
